<svg preserveAspectRatio="none" overflow="visible" style="display: block;" width="1256.35" height="92.5615" viewBox="0 0 1256.35 92.5615" fill="none" xmlns="http://www.w3.org/2000/svg">
<g id="FOR THE YOUTH. BY THE YOUTH.">
<mask id="path-1-outside-1_0_35" maskUnits="userSpaceOnUse" x="-0.0586901" y="-0.0586901" width="1257" height="93" fill="black">
<rect fill="white" x="-0.0586901" y="-0.0586901" width="1257" height="93"/>
<path d="M2.94131 3.65766H38.4009V19.4175H19.7756V37.8278H36.9681V53.5876H19.7756V88.9038H2.94131V3.65766Z"/>
<path d="M41.2635 45.7793C41.2635 41.0514 42.0037 36.5861 43.4842 32.3835C44.9646 28.1331 47.0421 24.1932 49.7165 20.5636C52.3431 16.9819 55.4712 13.8777 59.1007 11.251C62.778 8.62439 66.7179 6.59472 70.9205 5.16201C73.0219 4.44566 75.1948 3.89645 77.4394 3.51439C79.7317 3.13234 82.0479 2.94131 84.388 2.94131C89.2115 2.94131 93.7484 3.70542 97.9987 5.23364C102.249 6.71411 106.141 8.7199 109.675 11.251C113.735 14.2597 117.03 17.6266 119.561 21.3516C122.092 25.0289 123.979 28.6823 125.22 32.3118C125.937 34.4609 126.486 36.6577 126.868 38.9023C127.25 41.1469 127.441 43.4392 127.441 45.7793C127.441 50.4595 126.701 55.0203 125.22 59.4617C123.787 63.9031 121.758 67.9624 119.131 71.6397C116.457 75.2692 113.281 78.4451 109.604 81.1672C105.974 83.8416 102.082 85.8952 97.9271 87.3279C93.5812 88.8561 89.0682 89.6202 84.388 89.6202C79.6123 89.6202 75.0754 88.8561 70.7773 87.3279C66.4791 85.7996 62.5631 83.7222 59.0291 81.0956C55.4473 78.4212 52.3192 75.2931 49.6448 71.7113C47.0182 68.1296 44.9646 64.0702 43.4842 59.5333C42.7678 57.3842 42.2186 55.1635 41.8366 52.8712C41.4545 50.5311 41.2635 48.1671 41.2635 45.7793ZM58.0978 45.9226C58.0978 48.8357 58.5515 51.7012 59.4589 54.5188C60.3663 57.3365 61.6079 59.8198 63.1839 61.9689C64.9032 64.3568 66.8612 66.3864 69.058 68.0579C71.2548 69.6817 73.6188 70.8995 76.1499 71.7113C78.8243 72.6665 81.5942 73.144 84.4596 73.144C87.3251 73.144 90.0711 72.6904 92.6977 71.783C95.3243 70.8278 97.7122 69.5145 99.8613 67.843C102.01 66.2193 103.897 64.2851 105.52 62.0405C107.144 59.7482 108.386 57.241 109.246 54.5188C109.675 53.1816 110.01 51.7967 110.248 50.364C110.487 48.9313 110.607 47.4508 110.607 45.9226C110.607 43.1049 110.153 40.3589 109.246 37.6845C108.338 34.9624 107.096 32.5267 105.52 30.3777C102.177 25.8408 97.8794 22.6411 92.6261 20.7785C89.9995 19.8712 87.2773 19.4175 84.4596 19.4175C82.1673 19.4175 79.6839 19.7995 77.0096 20.5636C74.3352 21.28 71.6608 22.6172 68.9864 24.5752C66.7896 26.1989 64.8554 28.1092 63.1839 30.306C61.5602 32.5029 60.3185 34.9146 59.4589 37.5412C59.0291 38.8784 58.6948 40.2634 58.456 41.6961C58.2172 43.081 58.0978 44.4899 58.0978 45.9226Z"/>
<path d="M177.922 25.8647C177.922 30.115 177.039 33.7445 175.272 36.7532C174.46 38.1859 173.457 39.4515 172.263 40.5499C171.117 41.6483 169.684 42.5796 167.965 43.3437C166.341 44.0123 164.598 44.4421 162.735 44.6331V45.7793C164.455 45.7793 166.198 46.3285 167.965 47.4269C169.636 48.5253 170.95 49.9819 171.905 51.7967C172.143 52.2742 172.334 52.7518 172.478 53.2294C172.669 53.707 172.836 54.1845 172.979 54.6621L181.504 88.9038H164.67L154.712 52.8712H149.268V88.9038H132.434V3.65766H157.506C159.798 3.65766 161.995 4.01584 164.096 4.73219C166.245 5.40079 168.18 6.40369 169.899 7.74089C171.618 9.12583 173.051 10.7018 174.197 12.4688C175.391 14.2358 176.322 16.2655 176.991 18.5578C177.612 20.8979 177.922 23.3335 177.922 25.8647ZM149.268 37.1114H153.208C154.115 37.1114 154.975 36.992 155.787 36.7532C156.646 36.5145 157.434 36.1324 158.151 35.6071C159.392 34.6042 160.276 33.1715 160.801 31.3089C160.992 30.4971 161.088 29.4942 161.088 28.3003C161.088 25.5781 160.395 23.429 159.01 21.8531C157.625 20.2293 155.691 19.4175 153.208 19.4175H149.268V37.1114Z"/>
<path d="M212.632 88.9038V19.4175H199.379V3.65766H242.719V19.4175H229.466V88.9038H212.632Z"/>
<path d="M246.642 88.9038V3.65766H263.476V33.5296H276.012V3.65766H292.847V88.9038H276.012V49.2894H263.476V88.9038H246.642Z"/>
<path d="M335.803 88.9038H299.985V3.65766H335.444V19.4175H316.819V35.6787H334.012V51.4385H316.819V73.144H335.803V88.9038Z"/>
<path d="M370.518 3.65766L376.034 27.0825C376.32 28.2286 376.511 29.136 376.607 29.8046C376.75 30.4732 376.87 31.1657 376.965 31.882C377.108 32.5506 377.275 33.5296 377.466 34.8191C377.658 36.0608 377.825 37.4218 377.968 38.9023C378.111 40.3828 378.207 41.6483 378.254 42.699C378.254 43.2721 378.278 43.869 378.326 44.4899C378.326 45.1107 378.326 45.7077 378.326 46.2808H379.759C379.759 45.2301 379.783 44.0362 379.83 42.699C379.926 41.314 380.045 40.0246 380.189 38.8307C380.284 37.5412 380.404 36.2279 380.547 34.8907C380.738 33.5058 380.977 32.1447 381.263 30.8075C381.359 30.1867 381.478 29.5658 381.621 28.945C381.765 28.3241 381.908 27.7033 382.051 27.0825L387.567 3.65766H404.401L387.495 58.8886V88.9038H370.661V58.8886L353.684 3.65766H370.518Z"/>
<path d="M402.95 45.7793C402.95 41.0514 403.69 36.5861 405.17 32.3835C406.651 28.1331 408.728 24.1932 411.403 20.5636C414.029 16.9819 417.157 13.8777 420.787 11.251C424.464 8.62439 428.404 6.59472 432.607 5.16201C434.708 4.44566 436.881 3.89645 439.126 3.51439C441.418 3.13234 443.734 2.94131 446.074 2.94131C450.898 2.94131 455.435 3.70542 459.685 5.23364C463.935 6.71411 467.828 8.7199 471.362 11.251C475.421 14.2597 478.716 17.6266 481.247 21.3516C483.778 25.0289 485.665 28.6823 486.906 32.3118C487.623 34.4609 488.172 36.6577 488.554 38.9023C488.936 41.1469 489.127 43.4392 489.127 45.7793C489.127 50.4595 488.387 55.0203 486.906 59.4617C485.474 63.9031 483.444 67.9624 480.817 71.6397C478.143 75.2692 474.967 78.4451 471.29 81.1672C467.66 83.8416 463.768 85.8952 459.613 87.3279C455.267 88.8561 450.754 89.6202 446.074 89.6202C441.299 89.6202 436.762 88.8561 432.463 87.3279C428.165 85.7996 424.249 83.7222 420.715 81.0956C417.134 78.4212 414.005 75.2931 411.331 71.7113C408.704 68.1296 406.651 64.0702 405.17 59.5333C404.454 57.3842 403.905 55.1635 403.523 52.8712C403.141 50.5311 402.95 48.1671 402.95 45.7793ZM419.784 45.9226C419.784 48.8357 420.238 51.7012 421.145 54.5188C422.052 57.3365 423.294 59.8198 424.87 61.9689C426.589 64.3568 428.547 66.3864 430.744 68.0579C432.941 69.6817 435.305 70.8995 437.836 71.7113C440.511 72.6665 443.28 73.144 446.146 73.144C449.011 73.144 451.757 72.6904 454.384 71.783C457.011 70.8278 459.398 69.5145 461.547 67.843C463.697 66.2193 465.583 64.2851 467.207 62.0405C468.83 59.7482 470.072 57.241 470.932 54.5188C471.362 53.1816 471.696 51.7967 471.935 50.364C472.173 48.9313 472.293 47.4508 472.293 45.9226C472.293 43.1049 471.839 40.3589 470.932 37.6845C470.024 34.9624 468.783 32.5267 467.207 30.3777C463.864 25.8408 459.566 22.6411 454.312 20.7785C451.686 19.8712 448.964 19.4175 446.146 19.4175C443.854 19.4175 441.37 19.7995 438.696 20.5636C436.021 21.28 433.347 22.6172 430.673 24.5752C428.476 26.1989 426.542 28.1092 424.87 30.306C423.246 32.5029 422.005 34.9146 421.145 37.5412C420.715 38.8784 420.381 40.2634 420.142 41.6961C419.903 43.081 419.784 44.4899 419.784 45.9226Z"/>
<path d="M493.403 67.843V3.65766H510.238V67.843C510.238 69.0847 510.62 70.1592 511.384 71.0666C511.67 71.4964 512.029 71.8785 512.458 72.2128C512.936 72.4993 513.485 72.7142 514.106 72.8575C514.679 73.0485 515.252 73.144 515.825 73.144C517.353 73.144 518.643 72.6904 519.694 71.783C520.792 70.8278 521.341 69.5145 521.341 67.843V3.65766H538.176V67.843C538.176 73.1918 536.886 77.6332 534.307 81.1672C532.97 82.982 531.418 84.5102 529.651 85.7519C527.884 86.9458 525.806 87.9009 523.419 88.6173C521.126 89.2859 518.595 89.6202 515.825 89.6202C512.912 89.6202 510.309 89.2859 508.017 88.6173C505.772 87.9009 503.767 86.9458 502 85.7519C498.275 83.2208 495.743 79.6867 494.406 75.1498C493.738 72.9053 493.403 70.4697 493.403 67.843Z"/>
<path d="M554.624 88.9038V19.4175H541.371V3.65766H584.711V19.4175H571.458V88.9038H554.624Z"/>
<path d="M588.634 88.9038V3.65766H605.468V33.5296H618.004V3.65766H634.839V88.9038H618.004V49.2894H605.468V88.9038H588.634Z"/>
<path d="M649.57 89.6202C648.52 89.6202 647.445 89.453 646.347 89.1187C645.296 88.7844 644.389 88.3069 643.625 87.686C642.765 87.0652 642.025 86.3488 641.404 85.537C640.831 84.7251 640.377 83.7938 640.043 82.7432C639.661 81.6925 639.47 80.6419 639.47 79.5912C639.47 78.3973 639.661 77.3228 640.043 76.3676C640.425 75.3647 640.902 74.4574 641.476 73.6455C642.096 72.7381 642.813 72.0218 643.625 71.4964C644.436 70.9233 645.368 70.4458 646.418 70.0637C647.469 69.7294 648.52 69.5623 649.57 69.5623C650.621 69.5623 651.696 69.7533 652.794 70.1354C653.892 70.4696 654.8 70.8995 655.516 71.4248C656.28 72.0456 656.949 72.7381 657.522 73.5022C658.095 74.2663 658.596 75.2215 659.026 76.3676C659.361 77.466 659.528 78.5406 659.528 79.5912C659.528 80.5464 659.361 81.597 659.026 82.7432C658.692 83.8894 658.238 84.8206 657.665 85.537C657.044 86.3488 656.304 87.0891 655.444 87.7577C654.633 88.3785 653.725 88.8322 652.722 89.1187C652.245 89.262 651.743 89.3814 651.218 89.4769C650.693 89.5724 650.143 89.6202 649.57 89.6202Z"/>
<path d="M726.137 24.2887C726.137 30.0673 724.848 34.437 722.269 37.398C719.69 40.3111 715.535 42.2453 709.805 43.2004V44.3466C712.049 44.6331 714.103 45.1346 715.965 45.8509C717.875 46.5673 719.571 47.5702 721.051 48.8596C722.484 50.1013 723.702 51.6056 724.705 53.3727C725.708 55.1397 726.424 57.0022 726.854 58.9602C727.331 61.1093 727.57 63.4971 727.57 66.1238C727.57 68.8937 727.26 71.4725 726.639 73.8604C726.066 76.2482 725.182 78.3734 723.988 80.236C722.699 82.194 721.195 83.8177 719.475 85.1072C717.756 86.3488 715.87 87.2801 713.816 87.9009C711.619 88.5695 709.231 88.9038 706.653 88.9038H681.365V3.65766H706.008C708.443 3.65766 710.712 3.96808 712.813 4.58893C714.962 5.16201 716.849 6.02163 718.472 7.1678C720.048 8.36172 721.386 9.74668 722.484 11.3227C723.63 12.8986 724.561 14.8328 725.278 17.1251C725.564 18.2235 725.779 19.3697 725.923 20.5636C726.066 21.7576 726.137 22.9992 726.137 24.2887ZM701.71 19.4175H698.2V37.1114H701.71C703.668 37.1114 705.268 36.5861 706.509 35.5354C707.082 35.0579 707.56 34.4848 707.942 33.8162C708.372 33.1476 708.73 32.3118 709.017 31.3089C709.112 30.8314 709.184 30.3538 709.231 29.8762C709.279 29.3509 709.303 28.8256 709.303 28.3003C709.303 26.1034 708.873 24.2648 708.014 22.7843C707.584 22.1157 707.059 21.5188 706.438 20.9934C705.817 20.4204 705.124 20.0144 704.36 19.7756C703.453 19.5369 702.569 19.4175 701.71 19.4175ZM698.2 73.144H702.569C704.623 73.144 706.318 72.571 707.656 71.4248C708.372 70.8517 708.945 70.1592 709.375 69.3474C709.805 68.4877 710.139 67.5326 710.378 66.4819C710.616 65.3358 710.736 64.1657 710.736 62.9718C710.736 61.8256 710.593 60.7034 710.306 59.6049C710.067 58.4588 709.733 57.4798 709.303 56.6679C708.3 54.9486 706.987 53.8264 705.363 53.301C704.504 53.0145 703.572 52.8712 702.569 52.8712H698.2V73.144Z"/>
<path d="M742.558 3.65766L748.074 27.0825C748.36 28.2286 748.551 29.136 748.647 29.8046C748.79 30.4732 748.909 31.1657 749.005 31.882C749.148 32.5506 749.315 33.5296 749.506 34.8191C749.697 36.0608 749.864 37.4218 750.008 38.9023C750.151 40.3828 750.247 41.6483 750.294 42.699C750.294 43.2721 750.318 43.869 750.366 44.4899C750.366 45.1107 750.366 45.7077 750.366 46.2808H751.799C751.799 45.2301 751.823 44.0362 751.87 42.699C751.966 41.314 752.085 40.0246 752.228 38.8307C752.324 37.5412 752.443 36.2279 752.587 34.8907C752.778 33.5058 753.016 32.1447 753.303 30.8075C753.398 30.1867 753.518 29.5658 753.661 28.945C753.804 28.3241 753.948 27.7033 754.091 27.0825L759.607 3.65766H776.441L759.535 58.8886V88.9038H742.701V58.8886L725.723 3.65766H742.558Z"/>
<path d="M806.512 88.9038V19.4175H793.259V3.65766H836.599V19.4175H823.346V88.9038H806.512Z"/>
<path d="M840.522 88.9038V3.65766H857.356V33.5296H869.892V3.65766H886.727V88.9038H869.892V49.2894H857.356V88.9038H840.522Z"/>
<path d="M929.683 88.9038H893.865V3.65766H929.325V19.4175H910.699V35.6787H927.892V51.4385H910.699V73.144H929.683V88.9038Z"/>
<path d="M964.398 3.65766L969.914 27.0825C970.2 28.2286 970.391 29.136 970.487 29.8046C970.63 30.4732 970.75 31.1657 970.845 31.882C970.988 32.5506 971.156 33.5296 971.347 34.8191C971.538 36.0608 971.705 37.4218 971.848 38.9023C971.991 40.3828 972.087 41.6483 972.135 42.699C972.135 43.2721 972.158 43.869 972.206 44.4899C972.206 45.1107 972.206 45.7077 972.206 46.2808H973.639C973.639 45.2301 973.663 44.0362 973.711 42.699C973.806 41.314 973.925 40.0246 974.069 38.8307C974.164 37.5412 974.284 36.2279 974.427 34.8907C974.618 33.5058 974.857 32.1447 975.143 30.8075C975.239 30.1867 975.358 29.5658 975.501 28.945C975.645 28.3241 975.788 27.7033 975.931 27.0825L981.447 3.65766H998.282L981.376 58.8886V88.9038H964.541V58.8886L947.564 3.65766H964.398Z"/>
<path d="M996.83 45.7793C996.83 41.0514 997.57 36.5861 999.051 32.3835C1000.53 28.1331 1002.61 24.1932 1005.28 20.5636C1007.91 16.9819 1011.04 13.8777 1014.67 11.251C1018.34 8.62439 1022.28 6.59472 1026.49 5.16201C1028.59 4.44566 1030.76 3.89645 1033.01 3.51439C1035.3 3.13234 1037.61 2.94131 1039.95 2.94131C1044.78 2.94131 1049.31 3.70542 1053.57 5.23364C1057.82 6.71411 1061.71 8.7199 1065.24 11.251C1069.3 14.2597 1072.6 17.6266 1075.13 21.3516C1077.66 25.0289 1079.54 28.6823 1080.79 32.3118C1081.5 34.4609 1082.05 36.6577 1082.43 38.9023C1082.82 41.1469 1083.01 43.4392 1083.01 45.7793C1083.01 50.4595 1082.27 55.0203 1080.79 59.4617C1079.35 63.9031 1077.32 67.9624 1074.7 71.6397C1072.02 75.2692 1068.85 78.4451 1065.17 81.1672C1061.54 83.8416 1057.65 85.8952 1053.49 87.3279C1049.15 88.8561 1044.63 89.6202 1039.95 89.6202C1035.18 89.6202 1030.64 88.8561 1026.34 87.3279C1022.05 85.7996 1018.13 83.7222 1014.6 81.0956C1011.01 78.4212 1007.89 75.2931 1005.21 71.7113C1002.58 68.1296 1000.53 64.0702 999.051 59.5333C998.334 57.3842 997.785 55.1635 997.403 52.8712C997.021 50.5311 996.83 48.1671 996.83 45.7793ZM1013.66 45.9226C1013.66 48.8357 1014.12 51.7012 1015.03 54.5188C1015.93 57.3365 1017.17 59.8198 1018.75 61.9689C1020.47 64.3568 1022.43 66.3864 1024.62 68.0579C1026.82 69.6817 1029.19 70.8995 1031.72 71.7113C1034.39 72.6665 1037.16 73.144 1040.03 73.144C1042.89 73.144 1045.64 72.6904 1048.26 71.783C1050.89 70.8278 1053.28 69.5145 1055.43 67.843C1057.58 66.2193 1059.46 64.2851 1061.09 62.0405C1062.71 59.7482 1063.95 57.241 1064.81 54.5188C1065.24 53.1816 1065.58 51.7967 1065.81 50.364C1066.05 48.9313 1066.17 47.4508 1066.17 45.9226C1066.17 43.1049 1065.72 40.3589 1064.81 37.6845C1063.9 34.9624 1062.66 32.5267 1061.09 30.3777C1057.74 25.8408 1053.45 22.6411 1048.19 20.7785C1045.57 19.8712 1042.84 19.4175 1040.03 19.4175C1037.73 19.4175 1035.25 19.7995 1032.58 20.5636C1029.9 21.28 1027.23 22.6172 1024.55 24.5752C1022.36 26.1989 1020.42 28.1092 1018.75 30.306C1017.13 32.5029 1015.88 34.9146 1015.03 37.5412C1014.6 38.8784 1014.26 40.2634 1014.02 41.6961C1013.78 43.081 1013.66 44.4899 1013.66 45.9226Z"/>
<path d="M1087.28 67.843V3.65766H1104.12V67.843C1104.12 69.0847 1104.5 70.1592 1105.26 71.0666C1105.55 71.4964 1105.91 71.8785 1106.34 72.2128C1106.82 72.4993 1107.37 72.7142 1107.99 72.8575C1108.56 73.0485 1109.13 73.144 1109.71 73.144C1111.23 73.144 1112.52 72.6904 1113.57 71.783C1114.67 70.8278 1115.22 69.5145 1115.22 67.843V3.65766H1132.06V67.843C1132.06 73.1918 1130.77 77.6332 1128.19 81.1672C1126.85 82.982 1125.3 84.5102 1123.53 85.7519C1121.76 86.9458 1119.69 87.9009 1117.3 88.6173C1115.01 89.2859 1112.48 89.6202 1109.71 89.6202C1106.79 89.6202 1104.19 89.2859 1101.9 88.6173C1099.65 87.9009 1097.65 86.9458 1095.88 85.7519C1092.15 83.2208 1089.62 79.6867 1088.29 75.1498C1087.62 72.9053 1087.28 70.4697 1087.28 67.843Z"/>
<path d="M1148.5 88.9038V19.4175H1135.25V3.65766H1178.59V19.4175H1165.34V88.9038H1148.5Z"/>
<path d="M1182.51 88.9038V3.65766H1199.35V33.5296H1211.88V3.65766H1228.72V88.9038H1211.88V49.2894H1199.35V88.9038H1182.51Z"/>
<path d="M1243.45 89.6202C1242.4 89.6202 1241.33 89.453 1240.23 89.1187C1239.18 88.7844 1238.27 88.3069 1237.5 87.686C1236.65 87.0652 1235.9 86.3488 1235.28 85.537C1234.71 84.7251 1234.26 83.7938 1233.92 82.7432C1233.54 81.6925 1233.35 80.6419 1233.35 79.5912C1233.35 78.3973 1233.54 77.3228 1233.92 76.3676C1234.31 75.3647 1234.78 74.4574 1235.36 73.6455C1235.98 72.7381 1236.69 72.0218 1237.5 71.4964C1238.32 70.9233 1239.25 70.4458 1240.3 70.0637C1241.35 69.7294 1242.4 69.5623 1243.45 69.5623C1244.5 69.5623 1245.58 69.7533 1246.67 70.1354C1247.77 70.4696 1248.68 70.8995 1249.4 71.4248C1250.16 72.0456 1250.83 72.7381 1251.4 73.5022C1251.98 74.2663 1252.48 75.2215 1252.91 76.3676C1253.24 77.466 1253.41 78.5406 1253.41 79.5912C1253.41 80.5464 1253.24 81.597 1252.91 82.7432C1252.57 83.8894 1252.12 84.8206 1251.55 85.537C1250.92 86.3488 1250.18 87.0891 1249.32 87.7577C1248.51 88.3785 1247.61 88.8322 1246.6 89.1187C1246.12 89.262 1245.62 89.3814 1245.1 89.4769C1244.57 89.5724 1244.02 89.6202 1243.45 89.6202Z"/>
</mask>
<path d="M2.94131 3.65766H38.4009V19.4175H19.7756V37.8278H36.9681V53.5876H19.7756V88.9038H2.94131V3.65766Z" stroke="#234080" stroke-width="5.88262" mask="url(#path-1-outside-1_0_35)"/>
<path d="M41.2635 45.7793C41.2635 41.0514 42.0037 36.5861 43.4842 32.3835C44.9646 28.1331 47.0421 24.1932 49.7165 20.5636C52.3431 16.9819 55.4712 13.8777 59.1007 11.251C62.778 8.62439 66.7179 6.59472 70.9205 5.16201C73.0219 4.44566 75.1948 3.89645 77.4394 3.51439C79.7317 3.13234 82.0479 2.94131 84.388 2.94131C89.2115 2.94131 93.7484 3.70542 97.9987 5.23364C102.249 6.71411 106.141 8.7199 109.675 11.251C113.735 14.2597 117.03 17.6266 119.561 21.3516C122.092 25.0289 123.979 28.6823 125.22 32.3118C125.937 34.4609 126.486 36.6577 126.868 38.9023C127.25 41.1469 127.441 43.4392 127.441 45.7793C127.441 50.4595 126.701 55.0203 125.22 59.4617C123.787 63.9031 121.758 67.9624 119.131 71.6397C116.457 75.2692 113.281 78.4451 109.604 81.1672C105.974 83.8416 102.082 85.8952 97.9271 87.3279C93.5812 88.8561 89.0682 89.6202 84.388 89.6202C79.6123 89.6202 75.0754 88.8561 70.7773 87.3279C66.4791 85.7996 62.5631 83.7222 59.0291 81.0956C55.4473 78.4212 52.3192 75.2931 49.6448 71.7113C47.0182 68.1296 44.9646 64.0702 43.4842 59.5333C42.7678 57.3842 42.2186 55.1635 41.8366 52.8712C41.4545 50.5311 41.2635 48.1671 41.2635 45.7793ZM58.0978 45.9226C58.0978 48.8357 58.5515 51.7012 59.4589 54.5188C60.3663 57.3365 61.6079 59.8198 63.1839 61.9689C64.9032 64.3568 66.8612 66.3864 69.058 68.0579C71.2548 69.6817 73.6188 70.8995 76.1499 71.7113C78.8243 72.6665 81.5942 73.144 84.4596 73.144C87.3251 73.144 90.0711 72.6904 92.6977 71.783C95.3243 70.8278 97.7122 69.5145 99.8613 67.843C102.01 66.2193 103.897 64.2851 105.52 62.0405C107.144 59.7482 108.386 57.241 109.246 54.5188C109.675 53.1816 110.01 51.7967 110.248 50.364C110.487 48.9313 110.607 47.4508 110.607 45.9226C110.607 43.1049 110.153 40.3589 109.246 37.6845C108.338 34.9624 107.096 32.5267 105.52 30.3777C102.177 25.8408 97.8794 22.6411 92.6261 20.7785C89.9995 19.8712 87.2773 19.4175 84.4596 19.4175C82.1673 19.4175 79.6839 19.7995 77.0096 20.5636C74.3352 21.28 71.6608 22.6172 68.9864 24.5752C66.7896 26.1989 64.8554 28.1092 63.1839 30.306C61.5602 32.5029 60.3185 34.9146 59.4589 37.5412C59.0291 38.8784 58.6948 40.2634 58.456 41.6961C58.2172 43.081 58.0978 44.4899 58.0978 45.9226Z" stroke="#234080" stroke-width="5.88262" mask="url(#path-1-outside-1_0_35)"/>
<path d="M177.922 25.8647C177.922 30.115 177.039 33.7445 175.272 36.7532C174.46 38.1859 173.457 39.4515 172.263 40.5499C171.117 41.6483 169.684 42.5796 167.965 43.3437C166.341 44.0123 164.598 44.4421 162.735 44.6331V45.7793C164.455 45.7793 166.198 46.3285 167.965 47.4269C169.636 48.5253 170.95 49.9819 171.905 51.7967C172.143 52.2742 172.334 52.7518 172.478 53.2294C172.669 53.707 172.836 54.1845 172.979 54.6621L181.504 88.9038H164.67L154.712 52.8712H149.268V88.9038H132.434V3.65766H157.506C159.798 3.65766 161.995 4.01584 164.096 4.73219C166.245 5.40079 168.18 6.40369 169.899 7.74089C171.618 9.12583 173.051 10.7018 174.197 12.4688C175.391 14.2358 176.322 16.2655 176.991 18.5578C177.612 20.8979 177.922 23.3335 177.922 25.8647ZM149.268 37.1114H153.208C154.115 37.1114 154.975 36.992 155.787 36.7532C156.646 36.5145 157.434 36.1324 158.151 35.6071C159.392 34.6042 160.276 33.1715 160.801 31.3089C160.992 30.4971 161.088 29.4942 161.088 28.3003C161.088 25.5781 160.395 23.429 159.01 21.8531C157.625 20.2293 155.691 19.4175 153.208 19.4175H149.268V37.1114Z" stroke="#234080" stroke-width="5.88262" mask="url(#path-1-outside-1_0_35)"/>
<path d="M212.632 88.9038V19.4175H199.379V3.65766H242.719V19.4175H229.466V88.9038H212.632Z" stroke="#234080" stroke-width="5.88262" mask="url(#path-1-outside-1_0_35)"/>
<path d="M246.642 88.9038V3.65766H263.476V33.5296H276.012V3.65766H292.847V88.9038H276.012V49.2894H263.476V88.9038H246.642Z" stroke="#234080" stroke-width="5.88262" mask="url(#path-1-outside-1_0_35)"/>
<path d="M335.803 88.9038H299.985V3.65766H335.444V19.4175H316.819V35.6787H334.012V51.4385H316.819V73.144H335.803V88.9038Z" stroke="#234080" stroke-width="5.88262" mask="url(#path-1-outside-1_0_35)"/>
<path d="M370.518 3.65766L376.034 27.0825C376.32 28.2286 376.511 29.136 376.607 29.8046C376.75 30.4732 376.87 31.1657 376.965 31.882C377.108 32.5506 377.275 33.5296 377.466 34.8191C377.658 36.0608 377.825 37.4218 377.968 38.9023C378.111 40.3828 378.207 41.6483 378.254 42.699C378.254 43.2721 378.278 43.869 378.326 44.4899C378.326 45.1107 378.326 45.7077 378.326 46.2808H379.759C379.759 45.2301 379.783 44.0362 379.83 42.699C379.926 41.314 380.045 40.0246 380.189 38.8307C380.284 37.5412 380.404 36.2279 380.547 34.8907C380.738 33.5058 380.977 32.1447 381.263 30.8075C381.359 30.1867 381.478 29.5658 381.621 28.945C381.765 28.3241 381.908 27.7033 382.051 27.0825L387.567 3.65766H404.401L387.495 58.8886V88.9038H370.661V58.8886L353.684 3.65766H370.518Z" stroke="#234080" stroke-width="5.88262" mask="url(#path-1-outside-1_0_35)"/>
<path d="M402.95 45.7793C402.95 41.0514 403.69 36.5861 405.17 32.3835C406.651 28.1331 408.728 24.1932 411.403 20.5636C414.029 16.9819 417.157 13.8777 420.787 11.251C424.464 8.62439 428.404 6.59472 432.607 5.16201C434.708 4.44566 436.881 3.89645 439.126 3.51439C441.418 3.13234 443.734 2.94131 446.074 2.94131C450.898 2.94131 455.435 3.70542 459.685 5.23364C463.935 6.71411 467.828 8.7199 471.362 11.251C475.421 14.2597 478.716 17.6266 481.247 21.3516C483.778 25.0289 485.665 28.6823 486.906 32.3118C487.623 34.4609 488.172 36.6577 488.554 38.9023C488.936 41.1469 489.127 43.4392 489.127 45.7793C489.127 50.4595 488.387 55.0203 486.906 59.4617C485.474 63.9031 483.444 67.9624 480.817 71.6397C478.143 75.2692 474.967 78.4451 471.29 81.1672C467.66 83.8416 463.768 85.8952 459.613 87.3279C455.267 88.8561 450.754 89.6202 446.074 89.6202C441.299 89.6202 436.762 88.8561 432.463 87.3279C428.165 85.7996 424.249 83.7222 420.715 81.0956C417.134 78.4212 414.005 75.2931 411.331 71.7113C408.704 68.1296 406.651 64.0702 405.17 59.5333C404.454 57.3842 403.905 55.1635 403.523 52.8712C403.141 50.5311 402.95 48.1671 402.95 45.7793ZM419.784 45.9226C419.784 48.8357 420.238 51.7012 421.145 54.5188C422.052 57.3365 423.294 59.8198 424.87 61.9689C426.589 64.3568 428.547 66.3864 430.744 68.0579C432.941 69.6817 435.305 70.8995 437.836 71.7113C440.511 72.6665 443.28 73.144 446.146 73.144C449.011 73.144 451.757 72.6904 454.384 71.783C457.011 70.8278 459.398 69.5145 461.547 67.843C463.697 66.2193 465.583 64.2851 467.207 62.0405C468.83 59.7482 470.072 57.241 470.932 54.5188C471.362 53.1816 471.696 51.7967 471.935 50.364C472.173 48.9313 472.293 47.4508 472.293 45.9226C472.293 43.1049 471.839 40.3589 470.932 37.6845C470.024 34.9624 468.783 32.5267 467.207 30.3777C463.864 25.8408 459.566 22.6411 454.312 20.7785C451.686 19.8712 448.964 19.4175 446.146 19.4175C443.854 19.4175 441.37 19.7995 438.696 20.5636C436.021 21.28 433.347 22.6172 430.673 24.5752C428.476 26.1989 426.542 28.1092 424.87 30.306C423.246 32.5029 422.005 34.9146 421.145 37.5412C420.715 38.8784 420.381 40.2634 420.142 41.6961C419.903 43.081 419.784 44.4899 419.784 45.9226Z" stroke="#234080" stroke-width="5.88262" mask="url(#path-1-outside-1_0_35)"/>
<path d="M493.403 67.843V3.65766H510.238V67.843C510.238 69.0847 510.62 70.1592 511.384 71.0666C511.67 71.4964 512.029 71.8785 512.458 72.2128C512.936 72.4993 513.485 72.7142 514.106 72.8575C514.679 73.0485 515.252 73.144 515.825 73.144C517.353 73.144 518.643 72.6904 519.694 71.783C520.792 70.8278 521.341 69.5145 521.341 67.843V3.65766H538.176V67.843C538.176 73.1918 536.886 77.6332 534.307 81.1672C532.97 82.982 531.418 84.5102 529.651 85.7519C527.884 86.9458 525.806 87.9009 523.419 88.6173C521.126 89.2859 518.595 89.6202 515.825 89.6202C512.912 89.6202 510.309 89.2859 508.017 88.6173C505.772 87.9009 503.767 86.9458 502 85.7519C498.275 83.2208 495.743 79.6867 494.406 75.1498C493.738 72.9053 493.403 70.4697 493.403 67.843Z" stroke="#234080" stroke-width="5.88262" mask="url(#path-1-outside-1_0_35)"/>
<path d="M554.624 88.9038V19.4175H541.371V3.65766H584.711V19.4175H571.458V88.9038H554.624Z" stroke="#234080" stroke-width="5.88262" mask="url(#path-1-outside-1_0_35)"/>
<path d="M588.634 88.9038V3.65766H605.468V33.5296H618.004V3.65766H634.839V88.9038H618.004V49.2894H605.468V88.9038H588.634Z" stroke="#234080" stroke-width="5.88262" mask="url(#path-1-outside-1_0_35)"/>
<path d="M649.57 89.6202C648.52 89.6202 647.445 89.453 646.347 89.1187C645.296 88.7844 644.389 88.3069 643.625 87.686C642.765 87.0652 642.025 86.3488 641.404 85.537C640.831 84.7251 640.377 83.7938 640.043 82.7432C639.661 81.6925 639.47 80.6419 639.47 79.5912C639.47 78.3973 639.661 77.3228 640.043 76.3676C640.425 75.3647 640.902 74.4574 641.476 73.6455C642.096 72.7381 642.813 72.0218 643.625 71.4964C644.436 70.9233 645.368 70.4458 646.418 70.0637C647.469 69.7294 648.52 69.5623 649.57 69.5623C650.621 69.5623 651.696 69.7533 652.794 70.1354C653.892 70.4696 654.8 70.8995 655.516 71.4248C656.28 72.0456 656.949 72.7381 657.522 73.5022C658.095 74.2663 658.596 75.2215 659.026 76.3676C659.361 77.466 659.528 78.5406 659.528 79.5912C659.528 80.5464 659.361 81.597 659.026 82.7432C658.692 83.8894 658.238 84.8206 657.665 85.537C657.044 86.3488 656.304 87.0891 655.444 87.7577C654.633 88.3785 653.725 88.8322 652.722 89.1187C652.245 89.262 651.743 89.3814 651.218 89.4769C650.693 89.5724 650.143 89.6202 649.57 89.6202Z" stroke="#234080" stroke-width="5.88262" mask="url(#path-1-outside-1_0_35)"/>
<path d="M726.137 24.2887C726.137 30.0673 724.848 34.437 722.269 37.398C719.69 40.3111 715.535 42.2453 709.805 43.2004V44.3466C712.049 44.6331 714.103 45.1346 715.965 45.8509C717.875 46.5673 719.571 47.5702 721.051 48.8596C722.484 50.1013 723.702 51.6056 724.705 53.3727C725.708 55.1397 726.424 57.0022 726.854 58.9602C727.331 61.1093 727.57 63.4971 727.57 66.1238C727.57 68.8937 727.26 71.4725 726.639 73.8604C726.066 76.2482 725.182 78.3734 723.988 80.236C722.699 82.194 721.195 83.8177 719.475 85.1072C717.756 86.3488 715.87 87.2801 713.816 87.9009C711.619 88.5695 709.231 88.9038 706.653 88.9038H681.365V3.65766H706.008C708.443 3.65766 710.712 3.96808 712.813 4.58893C714.962 5.16201 716.849 6.02163 718.472 7.1678C720.048 8.36172 721.386 9.74668 722.484 11.3227C723.63 12.8986 724.561 14.8328 725.278 17.1251C725.564 18.2235 725.779 19.3697 725.923 20.5636C726.066 21.7576 726.137 22.9992 726.137 24.2887ZM701.71 19.4175H698.2V37.1114H701.71C703.668 37.1114 705.268 36.5861 706.509 35.5354C707.082 35.0579 707.56 34.4848 707.942 33.8162C708.372 33.1476 708.73 32.3118 709.017 31.3089C709.112 30.8314 709.184 30.3538 709.231 29.8762C709.279 29.3509 709.303 28.8256 709.303 28.3003C709.303 26.1034 708.873 24.2648 708.014 22.7843C707.584 22.1157 707.059 21.5188 706.438 20.9934C705.817 20.4204 705.124 20.0144 704.36 19.7756C703.453 19.5369 702.569 19.4175 701.71 19.4175ZM698.2 73.144H702.569C704.623 73.144 706.318 72.571 707.656 71.4248C708.372 70.8517 708.945 70.1592 709.375 69.3474C709.805 68.4877 710.139 67.5326 710.378 66.4819C710.616 65.3358 710.736 64.1657 710.736 62.9718C710.736 61.8256 710.593 60.7034 710.306 59.6049C710.067 58.4588 709.733 57.4798 709.303 56.6679C708.3 54.9486 706.987 53.8264 705.363 53.301C704.504 53.0145 703.572 52.8712 702.569 52.8712H698.2V73.144Z" stroke="#234080" stroke-width="5.88262" mask="url(#path-1-outside-1_0_35)"/>
<path d="M742.558 3.65766L748.074 27.0825C748.36 28.2286 748.551 29.136 748.647 29.8046C748.79 30.4732 748.909 31.1657 749.005 31.882C749.148 32.5506 749.315 33.5296 749.506 34.8191C749.697 36.0608 749.864 37.4218 750.008 38.9023C750.151 40.3828 750.247 41.6483 750.294 42.699C750.294 43.2721 750.318 43.869 750.366 44.4899C750.366 45.1107 750.366 45.7077 750.366 46.2808H751.799C751.799 45.2301 751.823 44.0362 751.87 42.699C751.966 41.314 752.085 40.0246 752.228 38.8307C752.324 37.5412 752.443 36.2279 752.587 34.8907C752.778 33.5058 753.016 32.1447 753.303 30.8075C753.398 30.1867 753.518 29.5658 753.661 28.945C753.804 28.3241 753.948 27.7033 754.091 27.0825L759.607 3.65766H776.441L759.535 58.8886V88.9038H742.701V58.8886L725.723 3.65766H742.558Z" stroke="#234080" stroke-width="5.88262" mask="url(#path-1-outside-1_0_35)"/>
<path d="M806.512 88.9038V19.4175H793.259V3.65766H836.599V19.4175H823.346V88.9038H806.512Z" stroke="#234080" stroke-width="5.88262" mask="url(#path-1-outside-1_0_35)"/>
<path d="M840.522 88.9038V3.65766H857.356V33.5296H869.892V3.65766H886.727V88.9038H869.892V49.2894H857.356V88.9038H840.522Z" stroke="#234080" stroke-width="5.88262" mask="url(#path-1-outside-1_0_35)"/>
<path d="M929.683 88.9038H893.865V3.65766H929.325V19.4175H910.699V35.6787H927.892V51.4385H910.699V73.144H929.683V88.9038Z" stroke="#234080" stroke-width="5.88262" mask="url(#path-1-outside-1_0_35)"/>
<path d="M964.398 3.65766L969.914 27.0825C970.2 28.2286 970.391 29.136 970.487 29.8046C970.63 30.4732 970.75 31.1657 970.845 31.882C970.988 32.5506 971.156 33.5296 971.347 34.8191C971.538 36.0608 971.705 37.4218 971.848 38.9023C971.991 40.3828 972.087 41.6483 972.135 42.699C972.135 43.2721 972.158 43.869 972.206 44.4899C972.206 45.1107 972.206 45.7077 972.206 46.2808H973.639C973.639 45.2301 973.663 44.0362 973.711 42.699C973.806 41.314 973.925 40.0246 974.069 38.8307C974.164 37.5412 974.284 36.2279 974.427 34.8907C974.618 33.5058 974.857 32.1447 975.143 30.8075C975.239 30.1867 975.358 29.5658 975.501 28.945C975.645 28.3241 975.788 27.7033 975.931 27.0825L981.447 3.65766H998.282L981.376 58.8886V88.9038H964.541V58.8886L947.564 3.65766H964.398Z" stroke="#234080" stroke-width="5.88262" mask="url(#path-1-outside-1_0_35)"/>
<path d="M996.83 45.7793C996.83 41.0514 997.57 36.5861 999.051 32.3835C1000.53 28.1331 1002.61 24.1932 1005.28 20.5636C1007.91 16.9819 1011.04 13.8777 1014.67 11.251C1018.34 8.62439 1022.28 6.59472 1026.49 5.16201C1028.59 4.44566 1030.76 3.89645 1033.01 3.51439C1035.3 3.13234 1037.61 2.94131 1039.95 2.94131C1044.78 2.94131 1049.31 3.70542 1053.57 5.23364C1057.82 6.71411 1061.71 8.7199 1065.24 11.251C1069.3 14.2597 1072.6 17.6266 1075.13 21.3516C1077.66 25.0289 1079.54 28.6823 1080.79 32.3118C1081.5 34.4609 1082.05 36.6577 1082.43 38.9023C1082.82 41.1469 1083.01 43.4392 1083.01 45.7793C1083.01 50.4595 1082.27 55.0203 1080.79 59.4617C1079.35 63.9031 1077.32 67.9624 1074.7 71.6397C1072.02 75.2692 1068.85 78.4451 1065.17 81.1672C1061.54 83.8416 1057.65 85.8952 1053.49 87.3279C1049.15 88.8561 1044.63 89.6202 1039.95 89.6202C1035.18 89.6202 1030.64 88.8561 1026.34 87.3279C1022.05 85.7996 1018.13 83.7222 1014.6 81.0956C1011.01 78.4212 1007.89 75.2931 1005.21 71.7113C1002.58 68.1296 1000.53 64.0702 999.051 59.5333C998.334 57.3842 997.785 55.1635 997.403 52.8712C997.021 50.5311 996.83 48.1671 996.83 45.7793ZM1013.66 45.9226C1013.66 48.8357 1014.12 51.7012 1015.03 54.5188C1015.93 57.3365 1017.17 59.8198 1018.75 61.9689C1020.47 64.3568 1022.43 66.3864 1024.62 68.0579C1026.82 69.6817 1029.19 70.8995 1031.72 71.7113C1034.39 72.6665 1037.16 73.144 1040.03 73.144C1042.89 73.144 1045.64 72.6904 1048.26 71.783C1050.89 70.8278 1053.28 69.5145 1055.43 67.843C1057.58 66.2193 1059.46 64.2851 1061.09 62.0405C1062.71 59.7482 1063.95 57.241 1064.81 54.5188C1065.24 53.1816 1065.58 51.7967 1065.81 50.364C1066.05 48.9313 1066.17 47.4508 1066.17 45.9226C1066.17 43.1049 1065.72 40.3589 1064.81 37.6845C1063.9 34.9624 1062.66 32.5267 1061.09 30.3777C1057.74 25.8408 1053.45 22.6411 1048.19 20.7785C1045.57 19.8712 1042.84 19.4175 1040.03 19.4175C1037.73 19.4175 1035.25 19.7995 1032.58 20.5636C1029.9 21.28 1027.23 22.6172 1024.55 24.5752C1022.36 26.1989 1020.42 28.1092 1018.75 30.306C1017.13 32.5029 1015.88 34.9146 1015.03 37.5412C1014.6 38.8784 1014.26 40.2634 1014.02 41.6961C1013.78 43.081 1013.66 44.4899 1013.66 45.9226Z" stroke="#234080" stroke-width="5.88262" mask="url(#path-1-outside-1_0_35)"/>
<path d="M1087.28 67.843V3.65766H1104.12V67.843C1104.12 69.0847 1104.5 70.1592 1105.26 71.0666C1105.55 71.4964 1105.91 71.8785 1106.34 72.2128C1106.82 72.4993 1107.37 72.7142 1107.99 72.8575C1108.56 73.0485 1109.13 73.144 1109.71 73.144C1111.23 73.144 1112.52 72.6904 1113.57 71.783C1114.67 70.8278 1115.22 69.5145 1115.22 67.843V3.65766H1132.06V67.843C1132.06 73.1918 1130.77 77.6332 1128.19 81.1672C1126.85 82.982 1125.3 84.5102 1123.53 85.7519C1121.76 86.9458 1119.69 87.9009 1117.3 88.6173C1115.01 89.2859 1112.48 89.6202 1109.71 89.6202C1106.79 89.6202 1104.19 89.2859 1101.9 88.6173C1099.65 87.9009 1097.65 86.9458 1095.88 85.7519C1092.15 83.2208 1089.62 79.6867 1088.29 75.1498C1087.62 72.9053 1087.28 70.4697 1087.28 67.843Z" stroke="#234080" stroke-width="5.88262" mask="url(#path-1-outside-1_0_35)"/>
<path d="M1148.5 88.9038V19.4175H1135.25V3.65766H1178.59V19.4175H1165.34V88.9038H1148.5Z" stroke="#234080" stroke-width="5.88262" mask="url(#path-1-outside-1_0_35)"/>
<path d="M1182.51 88.9038V3.65766H1199.35V33.5296H1211.88V3.65766H1228.72V88.9038H1211.88V49.2894H1199.35V88.9038H1182.51Z" stroke="#234080" stroke-width="5.88262" mask="url(#path-1-outside-1_0_35)"/>
<path d="M1243.45 89.6202C1242.4 89.6202 1241.33 89.453 1240.23 89.1187C1239.18 88.7844 1238.27 88.3069 1237.5 87.686C1236.65 87.0652 1235.9 86.3488 1235.28 85.537C1234.71 84.7251 1234.26 83.7938 1233.92 82.7432C1233.54 81.6925 1233.35 80.6419 1233.35 79.5912C1233.35 78.3973 1233.54 77.3228 1233.92 76.3676C1234.31 75.3647 1234.78 74.4574 1235.36 73.6455C1235.98 72.7381 1236.69 72.0218 1237.5 71.4964C1238.32 70.9233 1239.25 70.4458 1240.3 70.0637C1241.35 69.7294 1242.4 69.5623 1243.45 69.5623C1244.5 69.5623 1245.58 69.7533 1246.67 70.1354C1247.77 70.4696 1248.68 70.8995 1249.4 71.4248C1250.16 72.0456 1250.83 72.7381 1251.4 73.5022C1251.98 74.2663 1252.48 75.2215 1252.91 76.3676C1253.24 77.466 1253.41 78.5406 1253.41 79.5912C1253.41 80.5464 1253.24 81.597 1252.91 82.7432C1252.57 83.8894 1252.12 84.8206 1251.55 85.537C1250.92 86.3488 1250.18 87.0891 1249.32 87.7577C1248.51 88.3785 1247.61 88.8322 1246.6 89.1187C1246.12 89.262 1245.62 89.3814 1245.1 89.4769C1244.57 89.5724 1244.02 89.6202 1243.45 89.6202Z" stroke="#234080" stroke-width="5.88262" mask="url(#path-1-outside-1_0_35)"/>
</g>
</svg>
